<svg width="32" height="32" viewBox="0 0 40 20" fill="none" xmlns="http://www.w3.org/2000/svg">
<g clip-path="url(#clip0_868_2)">
<rect width="40" height="20" rx="5" fill="#3A3BA2"/>
<path d="M4.21894 15V13.68H6.49894V7.572L4.20694 9.276V7.692L6.22294 6.24H7.99894V13.68H9.83494V15H4.21894ZM11.3543 15V13.548L14.0903 10.8C14.4743 10.408 14.7583 10.056 14.9423 9.744C15.1263 9.424 15.2183 9.096 15.2183 8.76C15.2183 8.352 15.1063 8.036 14.8823 7.812C14.6583 7.58 14.3543 7.464 13.9703 7.464C13.5463 7.464 13.2143 7.588 12.9743 7.836C12.7343 8.076 12.6143 8.412 12.6143 8.844H11.1143C11.1223 8.284 11.2423 7.804 11.4743 7.404C11.7143 6.996 12.0503 6.68 12.4823 6.456C12.9143 6.232 13.4183 6.12 13.9943 6.12C14.5463 6.12 15.0263 6.224 15.4343 6.432C15.8423 6.64 16.1583 6.932 16.3823 7.308C16.6063 7.684 16.7183 8.132 16.7183 8.652C16.7183 9.188 16.5783 9.712 16.2983 10.224C16.0263 10.728 15.5863 11.272 14.9783 11.856L13.1543 13.644H16.8263V15H11.3543ZM18.4336 15V6.2H20.0656V7.384H20.4016L20.1296 7.672C20.1296 7.18133 20.2682 6.78667 20.5456 6.488C20.8229 6.18933 21.1802 6.04 21.6176 6.04C22.0869 6.04 22.4496 6.232 22.7056 6.616C22.9722 7 23.1056 7.51733 23.1056 8.168L22.7536 7.384H23.2976L23.0896 7.672C23.0896 7.18133 23.2282 6.78667 23.5056 6.488C23.7829 6.18933 24.1509 6.04 24.6096 6.04C25.1536 6.04 25.5856 6.24267 25.9056 6.648C26.2256 7.05333 26.3856 7.60267 26.3856 8.296V15H24.6256V8.376C24.6256 8.088 24.5616 7.864 24.4336 7.704C24.3056 7.53333 24.1189 7.448 23.8736 7.448C23.6389 7.448 23.4522 7.528 23.3136 7.688C23.1856 7.848 23.1216 8.07733 23.1216 8.376V15H21.6816V8.376C21.6816 8.07733 21.6176 7.848 21.4896 7.688C21.3616 7.528 21.1749 7.448 20.9296 7.448C20.6842 7.448 20.4976 7.528 20.3696 7.688C20.2522 7.848 20.1936 8.07733 20.1936 8.376V15H18.4336ZM31.6593 15.144C30.9873 15.144 30.4006 15.0373 29.8993 14.824C29.398 14.6107 29.0033 14.3173 28.7153 13.944C28.438 13.56 28.2886 13.112 28.2673 12.6H30.2673C30.2886 12.8773 30.422 13.1013 30.6673 13.272C30.9233 13.4427 31.254 13.528 31.6593 13.528H32.3633C32.854 13.528 33.222 13.432 33.4673 13.24C33.7126 13.048 33.8353 12.7867 33.8353 12.456C33.8353 12.1467 33.7233 11.9067 33.4993 11.736C33.286 11.5547 32.95 11.4373 32.4913 11.384L31.4033 11.224C30.4006 11.0853 29.6646 10.8187 29.1953 10.424C28.726 10.0293 28.4913 9.43733 28.4913 8.648C28.4913 7.82667 28.7686 7.192 29.3233 6.744C29.878 6.28533 30.694 6.056 31.7713 6.056H32.3793C33.3606 6.056 34.1446 6.27467 34.7313 6.712C35.318 7.14933 35.6326 7.736 35.6753 8.472H33.6753C33.6433 8.23733 33.51 8.04533 33.2753 7.896C33.0513 7.74667 32.7526 7.672 32.3793 7.672H31.7713C31.3126 7.672 30.9766 7.75733 30.7633 7.928C30.5606 8.088 30.4593 8.328 30.4593 8.648C30.4593 8.94667 30.55 9.17067 30.7313 9.32C30.9126 9.45867 31.206 9.56 31.6113 9.624L32.7473 9.784C33.7926 9.93333 34.5606 10.216 35.0513 10.632C35.5526 11.0373 35.8033 11.64 35.8033 12.44C35.8033 13.2933 35.51 13.96 34.9233 14.44C34.3473 14.9093 33.494 15.144 32.3633 15.144H31.6593Z" fill="white"/>
</g>
<defs>
<clipPath id="clip0_868_2">
<rect width="40" height="20" rx="5" fill="white"/>
</clipPath>
</defs>
</svg>




